# xmcd
#
# Track frame offsets: 
#        150
#        10320
#        37652
#        58825
#        80604
#        94722
#        118832
#        133050
#        151825
#        170112
#        186392
#        202035
#        224040
#
# Disc length: 3141 seconds
#
# Revision: 1
# Processed by: cddbd v1.5.2PL0 Copyright (c) Steve Scherf et al.
# Submitted via: ExactAudioCopy v0.99pb4
#
DISCID=be0c430d
DTITLE=Various Artist - KFOG Sampler #3
DYEAR=1995
DGENRE=Folk/Rock
TTITLE0=Del Amitri - Roll to Me
TTITLE1=Robert Cray - Moan
TTITLE2=Sonia Dada - Anna Lee
TTITLE3=Jane Arden - Could I Be Your Girl
TTITLE4=Wilco - Box of Letters
TTITLE5=Timbuk3 - Legalize our Love
TTITLE6=The Cruel Sea - The Honeymoon is Over
TTITLE7=The Rembrandts - Comin' Home
TTITLE8=Jewel - Who Will Save Your Soul
TTITLE9=Billy Pilgrim - Sweet Louisiana
TTITLE10=Danny Tate - Dreamin'
TTITLE11=Annie Lennox - No More "I Love You's"
TTITLE12=John Hiatt - A Mess of Blues
EXTD=YEAR: 1995
EXTT0=
EXTT1=
EXTT2=
EXTT3=
EXTT4=
EXTT5=
EXTT6=
EXTT7=
EXTT8=
EXTT9=
EXTT10=
EXTT11=
EXTT12=
PLAYORDER=
